# xmcd
#
# Track frame offsets:
#   150
#   21650
#   32231
#   51503
#   64555
#   77760
#   100478
#   117387
#   132995
#   150723
#   162826
#   174518
#
# Disc length: 2487 seconds
#
# Revision: 0
# Processed by: cddbd v1.4PL0 Copyright (c) Steve Scherf et al.
# Submitted via: uFREEDB 1.6.0
#
DISCID=a509b50c
DTITLE=Fleetwood Mac - Mr.Wonderfull
DYEAR=1900
DGENRE=Blues
TTITLE0=Stop Messin' Around
TTITLE1=I've Lost my Baby
TTITLE2=Rolling Man
TTITLE3=Dust My Broom
TTITLE4=Love that Burns
TTITLE5=Dr. Brown
TTITLE6=Need Your Love Tonite
TTITLE7=If You Be mY Baby
TTITLE8=Evening Boogie
TTITLE9=Lazy Poker Blues
TTITLE10=Coming Home
TTITLE11=Trying so Hard to Forget
EXTD=
EXTT0=
EXTT1=
EXTT2=
EXTT3=
EXTT4=
EXTT5=
EXTT6=
EXTT7=
EXTT8=
EXTT9=
EXTT10=
EXTT11=
PLAYORDER=
